<svg width="8" height="8" viewBox="0 0 8 8" fill="none" xmlns="http://www.w3.org/2000/svg">
<path fill-rule="evenodd" clip-rule="evenodd" d="M0.99793 1.00012C0.583717 1.41433 0.583717 2.0859 0.99793 2.50012L2.49821 4.00039L0.998324 5.50028C0.58411 5.91449 0.584111 6.58606 0.998324 7.00028C1.41254 7.41449 2.08411 7.41449 2.49832 7.00028L3.99821 5.50039L5.49793 7.00012C5.91214 7.41433 6.58372 7.41433 6.99793 7.00012C7.41214 6.5859 7.41214 5.91433 6.99793 5.50012L5.49821 4.00039L6.99832 2.50028C7.41254 2.08606 7.41254 1.41449 6.99832 1.00028C6.58411 0.586064 5.91254 0.586064 5.49832 1.00028L3.99821 2.50039L2.49793 1.00012C2.08372 0.585903 1.41214 0.585904 0.99793 1.00012Z" fill="#7A7580"/>
</svg>
