<svg width="70" height="40" viewBox="0 0 60 16" fill="none" xmlns="http://www.w3.org/2000/svg">
<path d="M44.5807 3.71534C44.8281 1.06603 43.0199 0.00300159 41.0602 0.00300159V0H35.8816C35.4962 0 35.2848 0.209907 35.1964 0.773654L33.4077 12.236C33.3312 12.7293 33.4512 12.9497 33.796 12.9497H35.9595C36.2864 12.9497 36.5083 12.7368 36.5758 12.305L37.0256 9.44577C37.1125 8.88652 37.2744 8.61364 37.6088 8.61364H39.9328C42.5941 8.60615 44.2808 6.86393 44.5807 3.71534ZM39.2985 6.13825H37.5368L38.1051 2.50988L39.7633 2.50238C40.6764 2.49788 41.2507 3.10661 41.2057 3.95673C41.1322 5.33311 40.4005 6.09627 39.2985 6.13825ZM50.8329 12.0216C50.8614 11.7997 50.6604 11.8927 50.4625 12.0726L50.4715 12.0771C49.7009 12.7818 49.0172 13.2316 47.4879 13.2316C45.3798 13.2316 43.7815 11.4789 43.9465 9.24786C44.1609 6.36315 46.1595 4.11266 49.1236 4.05119C50.3996 4.0212 51.3142 4.40203 51.6725 5.25065C51.7744 5.49054 51.8839 5.44856 51.9244 5.21017L52.0023 4.75287C52.0518 4.462 52.1448 4.35555 52.3352 4.35555H54.4463C54.7296 4.35555 54.8211 4.53847 54.7611 4.9118L53.5766 12.3455C53.4972 12.8463 53.3397 12.9767 53.0159 12.9767H51.0937C50.8359 12.9767 50.7264 12.8298 50.7624 12.5524L50.8329 12.0216ZM46.8731 8.66313C46.6887 9.91057 47.5778 10.9286 48.8538 10.9286C50.1297 10.9286 51.3231 9.91057 51.5076 8.66313C51.692 7.41568 50.8029 6.39764 49.527 6.39764C48.251 6.39764 47.0576 7.41568 46.8731 8.66313ZM55.5003 12.9887H57.7193V12.9917C57.806 12.9905 57.8897 12.9599 57.9568 12.9049C58.0238 12.8498 58.0701 12.7736 58.0881 12.6888L60.0372 0.34035C60.0428 0.302117 60.0399 0.263126 60.0286 0.226167C60.0173 0.189207 59.9981 0.155189 59.9721 0.126542C59.9462 0.0978962 59.9143 0.0753293 59.8786 0.0604527C59.843 0.0455761 59.8045 0.0387583 59.7659 0.0404848H57.5469C57.4606 0.0415008 57.3771 0.0716863 57.3102 0.126131C57.2432 0.180575 57.1966 0.256075 57.178 0.34035L55.2289 12.6888C55.2233 12.7271 55.2263 12.766 55.2376 12.803C55.2488 12.84 55.2681 12.874 55.294 12.9026C55.3199 12.9313 55.3519 12.9538 55.3875 12.9687C55.4232 12.9836 55.4617 12.9904 55.5003 12.9887ZM11.1966 3.71418C11.444 1.06487 9.63582 0.00184305 7.6762 0.00184305H7.67169H2.49302C2.10769 0.00184305 1.89628 0.21175 1.80782 0.775497L0.0221211 12.2349C-0.0543446 12.7281 0.0656011 12.9485 0.410447 12.9485H2.57398C2.90083 12.9485 3.12273 12.7356 3.1902 12.3038L3.64 9.44461C3.72696 8.88536 3.88889 8.61248 4.22324 8.61248H6.5487C9.21 8.60499 10.8967 6.86277 11.1966 3.71418ZM5.91448 6.13709H4.15277L4.72102 2.50872L6.37927 2.50122C7.29236 2.49672 7.86661 3.10545 7.82163 3.95557C7.74816 5.33195 7.01649 6.09511 5.91448 6.13709ZM17.4488 12.0205C17.4773 11.7986 17.2764 11.8915 17.0785 12.0714L17.0845 12.0759C16.3138 12.7806 15.6301 13.2304 14.1008 13.2304C11.9928 13.2304 10.3945 11.4777 10.5594 9.2467C10.7738 6.36199 12.7724 4.1115 15.7366 4.05003C17.0125 4.02004 17.9271 4.40087 18.2854 5.24949C18.3874 5.48938 18.4968 5.4474 18.5373 5.20901L18.6153 4.75171C18.6648 4.46084 18.7577 4.35439 18.9481 4.35439H21.0622C21.3456 4.35439 21.437 4.53731 21.3771 4.91064L20.1926 12.3443C20.1131 12.8451 19.9557 12.9755 19.6318 12.9755H17.7097C17.4518 12.9755 17.3424 12.8286 17.3783 12.5512L17.4488 12.0205ZM13.4876 8.66197C13.3032 9.90941 14.1923 10.9274 15.4682 10.9274C16.7456 10.9274 17.9376 9.90941 18.122 8.66197C18.3064 7.41452 17.4173 6.39648 16.1414 6.39648C14.8655 6.39648 13.672 7.41452 13.4876 8.66197ZM23.1897 4.3304H25.1389H25.1404C25.5137 4.3304 25.7161 4.48034 25.7971 4.75321L27.184 9.2617L30.2876 4.76371C30.4915 4.46834 30.6339 4.32741 30.9892 4.32741H33.0628C33.4392 4.32741 33.5471 4.67225 33.3177 5.0006L25.875 15.6758C25.8086 15.7858 25.712 15.8744 25.5966 15.9311C25.4812 15.9877 25.352 16.0099 25.2243 15.9952H23.0338C22.7534 15.9952 22.599 15.7388 22.7984 15.4569L25.1719 12.0849L22.7519 4.9991C22.6245 4.63027 22.7879 4.3304 23.1897 4.3304Z" fill="#7A7580"/>
</svg>
