<svg width="80" height="40" viewBox="0 0 84 20" fill="none" xmlns="http://www.w3.org/2000/svg">
<path d="M2.8589 0H14.9899C16.5694 0 17.8478 1.29039 17.8478 2.88379V12.2195C17.837 12.2186 17.2411 12.1647 14.6947 11.3048C14.2301 11.1479 13.6626 10.937 13.029 10.7016L13.0289 10.7016L13.0288 10.7016L13.0287 10.7015C12.6879 10.5749 12.328 10.4412 11.9548 10.305C12.5952 9.18091 13.1075 7.90103 13.444 6.51028H9.92601V5.23231H14.2359V4.5183H9.92601V2.38867H8.16727C7.85854 2.38867 7.85854 2.6955 7.85854 2.6955V4.51877H3.49994V5.23231H7.85854V6.51028H4.25983V7.22334H11.2393C10.9931 8.08264 10.6562 8.91332 10.2343 9.70137C7.96894 8.94768 5.55259 8.3369 4.03425 8.71255C3.0636 8.9539 2.43801 9.3845 2.07097 9.83566C0.3844 11.9051 1.59401 15.0474 5.15496 15.0474C7.26019 15.0474 9.28895 13.8636 10.8608 11.9122C13.1978 13.0459 17.8174 14.9882 17.8478 15.001V15.1167C17.8478 16.7087 16.5694 18 14.9899 18H2.8589C1.27938 18 0 16.7087 0 15.1167V2.88379C0 1.29039 1.27938 0 2.8589 0ZM2.59715 10.4321C1.22458 11.6384 2.04564 13.8445 4.82233 13.8445C6.43626 13.8445 8.04923 12.8036 9.31571 11.1375C7.51396 10.2505 5.98702 9.61582 4.33773 9.78022C3.89183 9.82515 3.055 10.024 2.59715 10.4321ZM38.7529 2.6342C38.7529 3.56519 39.433 4.19223 40.3826 4.19223C41.3322 4.19223 42.0123 3.56519 42.0123 2.6342C42.0123 1.72089 41.3318 1.07617 40.3826 1.07617C39.4335 1.07617 38.7529 1.72089 38.7529 2.6342ZM37.0346 14.5462H34.2053V1.47266H37.0346V14.5462ZM26.8086 4.1949L25.1254 10.015H28.4742L26.8803 4.1949H26.8086ZM25.4475 1.92047H29.2446L33.0588 14.5462H29.7096L29.0295 12.0749H24.5342L23.8178 14.5462H21.2031L25.4475 1.92047ZM41.798 14.5462H38.9687V4.94715H41.798V14.5462ZM71.3849 4.94715L71.3672 4.96484L66.5498 17.5911H64.0603V17.5194L65.6542 14.5821L61.8394 4.94715H65.0095L66.9436 10.7855H67.0334L68.7167 4.94715H71.3849ZM46.0792 12.7555C46.3918 12.8543 46.7182 12.9027 47.046 12.8988C48.4253 12.8988 49.6612 11.878 49.6612 9.58539C49.6612 7.79462 48.8195 6.95299 47.7624 6.95299C47.154 6.95299 46.6704 7.1499 46.0792 7.56187V12.7555ZM46.0797 5.89631C46.9925 5.14406 47.7987 4.75025 48.8372 4.75025C50.8784 4.75025 52.5268 6.52334 52.5268 9.49602C52.5268 12.809 50.2519 14.6719 47.727 14.6719C47.1177 14.6719 46.6164 14.6002 46.0792 14.4569V17.5906H43.2494V4.94715H46.0797V5.89631ZM56.7716 12.7913C57.2725 12.7913 57.7026 12.6298 58.4548 12.2183V9.92567C56.9327 10.2841 56.2698 10.5345 55.9295 10.8748C55.7149 11.0899 55.6609 11.3585 55.6609 11.6271C55.6609 12.3435 56.091 12.7913 56.7716 12.7913ZM61.2841 8.1349V12.1466L61.6244 14.5467H58.7951L58.5982 13.5431C57.5057 14.367 56.6999 14.7436 55.6972 14.7436C54.3538 14.7436 52.921 13.7581 52.921 11.9134C52.921 11.1434 53.1179 10.481 53.5834 10.0155C54.2105 9.38849 55.2131 9.04821 58.4548 8.43933V8.36765C58.4548 7.3468 58.0429 6.68392 57.1119 6.68392C56.3415 6.68392 55.6069 7.00652 53.9414 7.75877L53.4405 5.55603C55.2671 5.00068 56.2698 4.75025 57.7207 4.75025C59.9952 4.75025 61.2841 5.94983 61.2841 8.1349Z" fill="#7A7580"/>
</svg>
