<svg width="70" height="40" viewBox="0 0 70 40" fill="none" xmlns="http://www.w3.org/2000/svg">
<rect x="0.5" y="0.5" width="69" height="39" rx="5.5" stroke="white" stroke-opacity="0.06"/>
<path d="M23.588 12C22.9534 12.0305 22.1711 12.4356 21.7227 13.0045C21.3123 13.4959 20.9611 14.2928 21.0498 15.0408C21.7667 15.103 22.4853 14.6668 22.9324 14.1132C23.3732 13.543 23.6628 12.7797 23.588 12ZM29.6813 13.5229V24.9518H31.4848V21.1421H33.9562C36.2236 21.1421 37.8502 19.5611 37.8502 17.3325C37.8502 15.1039 36.2525 13.5229 34.0156 13.5229H29.6813ZM31.4848 15.0457H33.5753C35.1307 15.0457 36.0442 15.8887 36.0442 17.3325C36.0442 18.7764 35.1383 19.6168 33.5753 19.6168H31.4848V15.0457ZM23.5064 15.4277C22.4614 15.4277 21.7131 15.9981 21.2254 15.9981C20.7302 15.9981 19.9899 15.4326 19.135 15.4326C18.09 15.4326 17.067 16.091 16.5274 17.0498C15.4191 18.966 16.2401 21.8038 17.3117 23.3644C17.8373 24.1365 18.4705 24.9518 19.3254 24.9518C20.1095 24.9226 20.3732 24.4756 21.3194 24.4756C22.272 24.4756 22.5549 24.9518 23.4099 24.9518C24.2649 24.9518 24.783 24.1663 25.3074 23.3942C25.9065 22.518 26.1507 21.6628 26.1659 21.6184C26.1519 21.6044 24.5087 20.9722 24.4935 19.0712C24.4795 17.4813 25.7872 16.7234 25.8467 16.6802C25.1083 15.5805 23.8854 15.4277 23.6004 15.4277H23.5064ZM41.9916 16.5711C40.1005 16.5711 38.7037 17.6343 38.6518 19.096H40.2549C40.3866 18.4013 41.044 17.9451 41.9421 17.9451C43.0314 17.9451 43.6466 18.4444 43.6466 19.3638V19.9988L41.4201 20.1178C39.3516 20.241 38.2337 21.071 38.2337 22.5187C38.2337 23.9803 39.3885 24.9518 41.044 24.9518C42.1625 24.9518 43.2014 24.3933 43.6714 23.5108H43.7085V24.865H45.3561V19.2497C45.3548 17.6192 44.0296 16.5711 41.9916 16.5711ZM46.0191 16.5711L49.067 24.9121L48.9037 25.4206C48.6288 26.2803 48.1814 26.6111 47.3872 26.6111C47.2517 26.6111 46.9954 26.5978 46.8776 26.5838V27.9578C46.9966 27.9845 47.4139 28 47.5431 28C49.2961 28 50.1213 27.3377 50.8433 25.3313L54 16.5711H52.1718L50.0541 23.3396H50.017L47.8993 16.5711H46.0191ZM43.6466 21.1421L43.6392 21.8044C43.6392 22.8609 42.7274 23.6125 41.5215 23.6125C40.5728 23.6125 39.9679 23.1648 39.9679 22.4765C39.9679 21.7667 40.5504 21.3545 41.6625 21.2885L43.6466 21.1421Z" fill="white"/>
</svg>
