<svg width="72" height="40" viewBox="0 0 72 40" fill="none" xmlns="http://www.w3.org/2000/svg">
<rect x="0.5" y="0.5" width="71" height="39" rx="5.5" stroke="white" stroke-opacity="0.06"/>
<path d="M35.056 19.8188V24.5073H33.5674V12.9262H37.5133C38.4652 12.9059 39.385 13.2671 40.0685 13.9287C40.7605 14.5514 41.1503 15.4426 41.1351 16.3725C41.1554 17.3092 40.7655 18.207 40.0685 18.8315C39.3782 19.4897 38.5259 19.8188 37.5133 19.8171L35.056 19.8188ZM35.056 14.3523V18.3961H37.5504C38.104 18.4129 38.6373 18.1952 39.0221 17.7969C39.8035 17.0375 39.8221 15.7869 39.0609 15.0054C39.0474 14.9919 39.0356 14.9784 39.0221 14.9666C38.6424 14.5599 38.1057 14.3371 37.5504 14.3523H35.056ZM44.5646 16.3252C45.665 16.3252 46.5325 16.6189 47.1687 17.2062C47.805 17.7936 48.1223 18.6003 48.1223 19.623V24.5073H46.6996V23.4069H46.6354C46.0194 24.3132 45.1992 24.7655 44.1764 24.7655C43.3039 24.7655 42.5731 24.5073 41.9857 23.9892C41.4153 23.5082 41.0913 22.796 41.1048 22.0483C41.1048 21.2281 41.4153 20.5766 42.0347 20.0922C42.6541 19.6079 43.4811 19.3648 44.5173 19.3648C45.4 19.3648 46.1291 19.5268 46.6996 19.8492V19.5083C46.7029 18.9986 46.4768 18.5159 46.0852 18.1919C45.692 17.8374 45.1789 17.6433 44.649 17.6501C43.8186 17.6501 43.1604 18.0011 42.676 18.7016L41.3664 17.8763C42.0853 16.8417 43.152 16.3252 44.5646 16.3252ZM42.6389 22.0821C42.6372 22.4669 42.8212 22.828 43.1317 23.0525C43.4608 23.3107 43.8692 23.4491 44.2878 23.4407C44.9156 23.439 45.5182 23.1892 45.962 22.7453C46.4548 22.2812 46.7012 21.7378 46.7012 21.1116C46.2371 20.742 45.5907 20.5564 44.7604 20.5564C44.1562 20.5564 43.6515 20.7015 43.2482 20.9935C42.8414 21.2905 42.6389 21.65 42.6389 22.0821ZM56.2909 16.5835L51.3239 28.0009H49.7881L51.6311 24.0061L48.3636 16.5835H49.9805L52.3416 22.2761H52.3737L54.6707 16.5835H56.2909Z" fill="#5F6368"/>
<path d="M29.043 18.8049C29.043 18.3509 29.0059 17.8986 28.9283 17.4514H22.6533V20.0133H26.2465C26.098 20.8403 25.6186 21.5711 24.9182 22.0352V23.6993H27.0633C28.319 22.5432 29.043 20.8302 29.043 18.8049Z" fill="#4285F4"/>
<path d="M22.6531 25.3093C24.4489 25.3093 25.9611 24.7203 27.0632 23.7026L24.9181 22.0385C24.3206 22.4435 23.5527 22.6747 22.6531 22.6747C20.9182 22.6747 19.4448 21.5052 18.9182 19.9288H16.709V21.6435C17.8381 23.8916 20.1384 25.3093 22.6531 25.3093Z" fill="#34A853"/>
<path d="M18.9181 19.9282C18.6396 19.1029 18.6396 18.2067 18.9181 17.3814V15.6667H16.7088C15.7637 17.5468 15.7637 19.7628 16.7088 21.6429L18.9181 19.9282Z" fill="#FBBC04"/>
<path d="M22.6531 14.6349C23.6016 14.6198 24.5181 14.9775 25.205 15.6324L27.1054 13.7337C25.9003 12.6029 24.3054 11.9818 22.6531 12.0004C20.1384 12.0004 17.8381 13.4198 16.709 15.6661L18.9182 17.3809C19.4448 15.8045 20.9182 14.6349 22.6531 14.6349Z" fill="#EA4335"/>
</svg>
