<svg width="56" height="40" viewBox="0 0 56 40" fill="none" xmlns="http://www.w3.org/2000/svg">
<rect width="56" height="40" rx="6" fill="#0E0C0E"/>
<rect x="0.5" y="0.5" width="55" height="39" rx="5.5" stroke="white" stroke-opacity="0.06"/>
<path d="M32.542 11.9995C31.4914 11.9995 30.4511 12.2064 29.4805 12.6085C28.5099 13.0105 27.628 13.5998 26.8851 14.3427C26.1423 15.0855 25.553 15.9674 25.151 16.938C24.7489 17.9086 24.542 18.9489 24.542 19.9995C24.542 21.0501 24.7489 22.0904 25.151 23.061C25.553 24.0316 26.1423 24.9135 26.8851 25.6564C27.628 26.3992 28.5099 26.9885 29.4805 27.3905C30.4511 27.7926 31.4914 27.9995 32.542 27.9995C33.5926 27.9995 34.6329 27.7926 35.6035 27.3905C36.5741 26.9885 37.456 26.3992 38.1988 25.6564C38.9417 24.9135 39.531 24.0316 39.933 23.061C40.3351 22.0904 40.542 21.0501 40.542 19.9995C40.542 18.9489 40.3351 17.9086 39.933 16.938C39.531 15.9674 38.9417 15.0855 38.1988 14.3427C37.456 13.5998 36.5741 13.0105 35.6035 12.6085C34.6329 12.2064 33.5926 11.9995 32.542 11.9995Z" fill="#FF9800"/>
<path d="M23.4004 11.9995C22.3498 11.9995 21.3095 12.2064 20.3389 12.6085C19.3683 13.0105 18.4864 13.5998 17.7435 14.3427C17.0007 15.0855 16.4114 15.9674 16.0094 16.938C15.6073 17.9086 15.4004 18.9489 15.4004 19.9995C15.4004 21.0501 15.6073 22.0904 16.0094 23.061C16.4114 24.0316 17.0007 24.9135 17.7435 25.6564C18.4864 26.3992 19.3683 26.9885 20.3389 27.3905C21.3095 27.7926 22.3498 27.9995 23.4004 27.9995C24.451 27.9995 25.4913 27.7926 26.4619 27.3905C27.4325 26.9885 28.3144 26.3992 29.0572 25.6564C29.8001 24.9135 30.3894 24.0316 30.7914 23.061C31.1935 22.0904 31.4004 21.0501 31.4004 19.9995C31.4004 18.9489 31.1935 17.9086 30.7914 16.938C30.3894 15.9674 29.8001 15.0855 29.0572 14.3427C28.3144 13.5998 27.4325 13.0105 26.4619 12.6085C25.4913 12.2064 24.451 11.9995 23.4004 11.9995Z" fill="#D50000"/>
<path d="M24.542 19.9999C24.542 22.7171 25.8997 25.1142 27.9706 26.5599C30.0414 25.1142 31.3991 22.7171 31.3991 19.9999C31.3991 17.2828 30.0414 14.8857 27.9706 13.4399C25.8997 14.8857 24.542 17.2828 24.542 19.9999Z" fill="#FF3D00"/>
</svg>
