<svg width="12" height="12" viewBox="0 0 12 12" fill="none" xmlns="http://www.w3.org/2000/svg">
<path d="M9.74981 1H6.99981C6.60206 1 6.22056 1.158 5.93931 1.43925L1.43931 5.93925C0.853563 6.525 0.853563 7.47475 1.43931 8.0605L3.93931 10.5605C4.23206 10.8535 4.61606 11 4.99981 11C5.38356 11 5.76756 10.8535 6.06031 10.5607L10.5603 6.06075C10.8418 5.77925 10.9998 5.39775 10.9998 4.99975V2.25C10.9998 1.55975 10.4401 1 9.74981 1ZM8.49981 4.25C8.08556 4.25 7.74981 3.91425 7.74981 3.5C7.74981 3.08575 8.08556 2.75 8.49981 2.75C8.91406 2.75 9.24981 3.08575 9.24981 3.5C9.24981 3.91425 8.91406 4.25 8.49981 4.25Z" fill="#7A7580"/>
</svg>
