<svg width="56" height="40" viewBox="0 0 56 40" fill="none" xmlns="http://www.w3.org/2000/svg">
<rect width="56" height="40" rx="6" fill="#0E0C0E"/>
<rect x="0.5" y="0.5" width="55" height="39" rx="5.5" stroke="white" stroke-opacity="0.06"/>
<path d="M33.4783 13.999C30.3713 13.999 28.7826 15.529 28.7826 17.4738C28.7826 20.9916 32.8522 20.5182 32.8522 22.326C32.8522 22.6312 32.6174 23.359 30.9113 23.359C29.2013 23.359 28.0939 22.7016 28.0939 22.7016L27.5617 25.0808C27.5617 25.0808 28.6691 25.7069 30.7861 25.7069C32.903 25.7069 35.8261 24.0869 35.8261 21.7312C35.8261 18.8982 31.7565 18.6751 31.7565 17.4112C31.7565 16.7655 32.2574 16.2842 33.7287 16.2842C34.6835 16.2842 35.7635 17.0042 35.7635 17.0042L36.2643 14.5625C36.2643 14.5625 34.8439 13.999 33.4783 13.999ZM20.2365 14.2182L17.5443 22.1695C17.5443 22.1695 17.3604 21.4925 17.2939 21.0738C15.7561 17.6225 13.2557 16.3468 13.2557 16.3468L15.6348 25.3625H18.8904L23.3983 14.2182H20.2365ZM24.5565 14.2182L22.8035 25.3625H25.7774L27.5617 14.2182H24.5565ZM40.6157 14.2182L35.7635 25.3625H38.7061L39.3009 23.766H42.9948L43.3078 25.3625H46L43.7148 14.2182H40.6157ZM10 14.2495C10 14.2495 15.8148 16.0495 17.1687 20.4164L16.167 15.3451C16.167 15.3451 15.7365 14.2495 14.5704 14.2495H10ZM41.7426 17.4425L42.5565 21.6373H40.1148L41.7426 17.4425Z" fill="#0037FF"/>
</svg>
